<svg width="236" height="56" viewBox="0 0 236 56" fill="none" xmlns="http://www.w3.org/2000/svg">
<rect x="1" y="1" width="234" height="54" rx="5" fill="#2F3366" stroke="white" stroke-width="2"/>
<path d="M67.986 24.368C69.023 25.66 70.315 26.323 72.066 26.323C74.174 26.323 75.755 25.014 75.755 22.957C75.755 18.996 70.128 19.608 70.128 16.939C70.128 15.919 70.876 15.188 72.049 15.188C73.069 15.188 73.902 15.749 74.599 16.752L75.806 15.698C74.922 14.525 73.698 13.76 72.032 13.76C69.958 13.76 68.496 15.205 68.496 16.973C68.496 20.9 74.14 20.322 74.14 23.008C74.14 24.096 73.375 24.895 72.049 24.895C70.944 24.895 69.992 24.334 69.176 23.28L67.986 24.368ZM86.0405 24.589L84.9695 23.756C84.4085 24.521 83.4735 25.031 82.3685 25.031C80.5325 25.031 79.2235 23.79 79.1725 21.733H85.7515C85.8025 21.495 85.8535 21.172 85.8535 20.832C85.8535 18.724 84.3405 17.092 82.0115 17.092C79.3595 17.092 77.6935 19.115 77.6935 21.716C77.6935 24.215 79.4785 26.34 82.3685 26.34C83.9665 26.34 85.2415 25.66 86.0405 24.589ZM81.9775 18.316C83.4905 18.316 84.3575 19.37 84.4085 20.628H79.2745C79.5805 19.149 80.5665 18.316 81.9775 18.316ZM96.8285 24.98C94.9755 24.98 93.6665 23.552 93.6665 21.716C93.6665 19.897 94.9755 18.452 96.8115 18.452C97.8825 18.452 98.7495 18.962 99.2765 19.71L100.415 18.843C99.6165 17.789 98.3585 17.092 96.8115 17.092C93.9725 17.092 92.1535 19.217 92.1535 21.716C92.1535 24.215 93.9725 26.34 96.8115 26.34C98.3755 26.34 99.6165 25.66 100.415 24.589L99.2765 23.722C98.7495 24.47 97.8825 24.98 96.8285 24.98ZM105.975 17.092C103.204 17.092 101.334 19.217 101.334 21.716C101.334 24.215 103.204 26.34 105.975 26.34C108.729 26.34 110.616 24.215 110.616 21.716C110.616 19.217 108.729 17.092 105.975 17.092ZM105.992 24.98C104.156 24.98 102.847 23.501 102.847 21.716C102.847 19.931 104.156 18.452 105.992 18.452C107.777 18.452 109.086 19.931 109.086 21.716C109.086 23.484 107.777 24.98 105.992 24.98ZM112.939 26H114.384V20.067C114.928 19.166 115.71 18.452 116.951 18.452C118.277 18.452 119.144 19.336 119.144 20.866V26H120.589V20.815C120.589 18.384 119.161 17.092 117.24 17.092C115.965 17.092 115.081 17.636 114.384 18.401V17.432H112.939V26ZM123.498 26H124.943V20.067C125.487 19.166 126.269 18.452 127.51 18.452C128.836 18.452 129.703 19.336 129.703 20.866V26H131.148V20.815C131.148 18.384 129.72 17.092 127.799 17.092C126.524 17.092 125.64 17.636 124.943 18.401V17.432H123.498V26ZM141.672 24.589L140.601 23.756C140.04 24.521 139.105 25.031 138 25.031C136.164 25.031 134.855 23.79 134.804 21.733H141.383C141.434 21.495 141.485 21.172 141.485 20.832C141.485 18.724 139.972 17.092 137.643 17.092C134.991 17.092 133.325 19.115 133.325 21.716C133.325 24.215 135.11 26.34 138 26.34C139.598 26.34 140.873 25.66 141.672 24.589ZM137.609 18.316C139.122 18.316 139.989 19.37 140.04 20.628H134.906C135.212 19.149 136.198 18.316 137.609 18.316ZM147.845 24.98C145.992 24.98 144.683 23.552 144.683 21.716C144.683 19.897 145.992 18.452 147.828 18.452C148.899 18.452 149.766 18.962 150.293 19.71L151.432 18.843C150.633 17.789 149.375 17.092 147.828 17.092C144.989 17.092 143.17 19.217 143.17 21.716C143.17 24.215 144.989 26.34 147.828 26.34C149.392 26.34 150.633 25.66 151.432 24.589L150.293 23.722C149.766 24.47 148.899 24.98 147.845 24.98ZM153.874 23.127C153.874 25.218 154.945 26.17 156.849 26.17C157.461 26.17 157.92 26.102 158.328 25.932V24.64C158.005 24.776 157.614 24.844 157.053 24.844C156.016 24.844 155.336 24.47 155.336 23.127V18.741H158.311V17.432H155.336V15.29H153.874V17.432H152.259V18.741H153.874V23.127ZM167.969 24.589L166.898 23.756C166.337 24.521 165.402 25.031 164.297 25.031C162.461 25.031 161.152 23.79 161.101 21.733H167.68C167.731 21.495 167.782 21.172 167.782 20.832C167.782 18.724 166.269 17.092 163.94 17.092C161.288 17.092 159.622 19.115 159.622 21.716C159.622 24.215 161.407 26.34 164.297 26.34C165.895 26.34 167.17 25.66 167.969 24.589ZM163.906 18.316C165.419 18.316 166.286 19.37 166.337 20.628H161.203C161.509 19.149 162.495 18.316 163.906 18.316ZM170.231 26H171.676V20.118C172.203 19.251 172.934 18.673 174.056 18.673C174.396 18.673 174.651 18.707 174.906 18.775V17.364C174.702 17.296 174.447 17.262 174.175 17.262C173.087 17.262 172.305 17.755 171.676 18.503V17.432H170.231V26ZM183.899 26.238C185.004 26.238 186.126 25.745 186.772 24.912V26H188.217V20.254C188.217 18.367 186.925 17.092 184.749 17.092C183.253 17.092 182.046 17.721 181.298 18.741L182.386 19.574C182.913 18.843 183.712 18.384 184.698 18.384C185.922 18.384 186.772 19.064 186.772 20.254V20.849L183.882 21.325C182.063 21.631 181.077 22.549 181.077 23.841C181.077 25.303 182.216 26.238 183.899 26.238ZM182.539 23.79C182.539 23.059 183.066 22.532 184.239 22.328L186.772 21.903V23.586C186.211 24.504 185.276 25.048 184.137 25.048C183.134 25.048 182.539 24.521 182.539 23.79ZM189.741 17.432L193.09 26H194.994L198.343 17.432H196.779L194.042 24.487L191.305 17.432H189.741ZM207.597 24.589L206.526 23.756C205.965 24.521 205.03 25.031 203.925 25.031C202.089 25.031 200.78 23.79 200.729 21.733H207.308C207.359 21.495 207.41 21.172 207.41 20.832C207.41 18.724 205.897 17.092 203.568 17.092C200.916 17.092 199.25 19.115 199.25 21.716C199.25 24.215 201.035 26.34 203.925 26.34C205.523 26.34 206.798 25.66 207.597 24.589ZM203.534 18.316C205.047 18.316 205.914 19.37 205.965 20.628H200.831C201.137 19.149 202.123 18.316 203.534 18.316ZM213.77 24.98C211.917 24.98 210.608 23.552 210.608 21.716C210.608 19.897 211.917 18.452 213.753 18.452C214.824 18.452 215.691 18.962 216.218 19.71L217.357 18.843C216.558 17.789 215.3 17.092 213.753 17.092C210.914 17.092 209.095 19.217 209.095 21.716C209.095 24.215 210.914 26.34 213.753 26.34C215.317 26.34 216.558 25.66 217.357 24.589L216.218 23.722C215.691 24.47 214.824 24.98 213.77 24.98Z" fill="#F5F5FE"/>
<path d="M113.368 44H115.654V30.5H113.368V44ZM126.747 42.524L125.109 41.228C124.623 41.876 123.759 42.308 122.769 42.308C121.347 42.308 120.303 41.624 120.087 39.932H126.441C126.513 39.626 126.585 39.158 126.585 38.654C126.585 36.278 124.929 34.568 122.409 34.568C119.439 34.568 117.747 36.782 117.747 39.464C117.747 42.11 119.565 44.36 122.787 44.36C124.497 44.36 125.901 43.658 126.747 42.524ZM122.355 36.44C123.633 36.44 124.299 37.358 124.335 38.276H120.159C120.411 37.088 121.185 36.44 122.355 36.44ZM139.953 41.966C137.487 41.966 135.705 40.112 135.705 37.7C135.705 35.288 137.397 33.434 139.773 33.434C141.213 33.434 142.347 34.136 143.067 35.162L145.083 33.596C143.931 32.066 142.059 31.04 139.773 31.04C135.795 31.04 133.077 34.1 133.077 37.7C133.077 41.3 135.867 44.36 139.953 44.36C142.311 44.36 144.273 43.352 145.443 41.786V36.494H139.683V38.672H142.887V40.868C142.167 41.552 141.141 41.966 139.953 41.966ZM146.811 44H149.529L150.735 40.724H155.775L156.981 44H159.699L154.929 31.4H151.581L146.811 44ZM151.527 38.546L153.255 33.812L154.983 38.546H151.527ZM161.825 44H164.381V38.906H165.695L169.061 44H172.067L168.125 38.42C169.421 37.826 170.159 36.692 170.159 35.162C170.159 32.822 168.449 31.4 165.677 31.4H161.825V44ZM165.821 33.524C166.901 33.524 167.531 34.172 167.531 35.126C167.531 36.152 166.901 36.782 165.821 36.782H164.381V33.524H165.821Z" fill="#F5F5FE"/>
<path d="M43.025 26.273C43.0383 26.0581 43.0044 25.8429 42.9256 25.6425C42.8468 25.4421 42.7251 25.2613 42.569 25.113C42.2346 24.8309 41.8061 24.6852 41.369 24.705H41.109C40.2409 24.705 39.537 25.4088 39.537 26.277C39.537 27.1452 40.2409 27.849 41.109 27.849H41.369C41.8088 27.8684 42.239 27.7164 42.569 27.425C42.724 27.2773 42.8452 27.0979 42.9246 26.8991C43.004 26.7004 43.0396 26.4868 43.0291 26.273" fill="white"/>
<path d="M45.492 34.604C45.3732 34.7359 45.2277 34.8408 45.0651 34.9119C44.9024 34.983 44.7265 35.0184 44.549 35.016C44.3532 35.0228 44.1584 34.9849 43.9794 34.9052C43.8004 34.8255 43.642 34.7061 43.5161 34.556L39.5732 29.7806C39.5687 29.7752 39.5619 29.772 39.5548 29.772C39.5417 29.772 39.531 29.7827 39.531 29.7958V33.636C39.5428 33.8222 39.5162 34.0089 39.4527 34.1844C39.3892 34.3599 39.2903 34.5204 39.162 34.656C38.8965 34.8896 38.5545 35.0177 38.2008 35.0161C37.8471 35.0144 37.5064 34.8831 37.243 34.647C37.1136 34.5137 37.013 34.3551 36.9478 34.1811C36.8826 34.0071 36.854 33.8215 36.864 33.636V23.643C36.842 23.2695 36.9685 22.9025 37.216 22.622C37.3511 22.4928 37.5117 22.3933 37.6876 22.3297C37.8634 22.2662 38.0505 22.2401 38.237 22.253H41.363C42.5385 22.1763 43.7021 22.5264 44.64 23.239C45.0451 23.6275 45.3586 24.1013 45.5575 24.6262C45.7564 25.151 45.8359 25.7136 45.79 26.273C45.7966 26.719 45.7111 27.1615 45.539 27.573C45.376 27.9522 45.1351 28.2929 44.832 28.573C44.525 28.8555 44.1723 29.0841 43.789 29.249C43.2608 29.4766 43.0275 30.1902 43.4211 30.6096L45.5291 32.856C45.7409 33.0661 45.8649 33.3489 45.876 33.647C45.8777 34.0023 45.7394 34.344 45.491 34.598M34.961 34.446C34.8521 34.6229 34.6978 34.7672 34.514 34.864C34.3269 34.9621 34.1183 35.0122 33.907 35.01C33.6177 35.0307 33.3301 34.9505 33.0931 34.7832C32.8561 34.6158 32.6844 34.3716 32.6071 34.092C32.292 33.0982 31.3696 32.423 30.3272 32.423H28.8757C27.8393 32.423 26.9205 33.0897 26.599 34.075C26.5317 34.3568 26.3665 34.6056 26.1328 34.7768C25.899 34.9481 25.6121 35.0307 25.3231 35.01C24.9765 35.0174 24.641 34.8881 24.389 34.65C24.2654 34.5395 24.1669 34.4038 24.1003 34.252C24.0337 34.1001 24.0006 33.9358 24.0031 33.77C24.01 33.5675 24.0512 33.3677 24.125 33.179L27.703 23.507C27.8509 23.0878 28.1102 22.7169 28.453 22.434C28.7777 22.1694 29.1852 22.0278 29.604 22.034C30.0313 22.0239 30.4483 22.1657 30.781 22.434C31.1194 22.7172 31.3705 23.0907 31.505 23.511L34.9951 33.183C35.079 33.3934 35.126 33.6166 35.134 33.843C35.1371 34.0574 35.0784 34.2681 34.965 34.45M22.437 31.498C22.1825 32.2085 21.7865 32.86 21.273 33.413C20.7567 33.9603 20.1294 34.3909 19.433 34.676C18.6734 34.9843 17.8598 35.1379 17.04 35.128C15.9367 35.1469 14.8504 34.8537 13.9065 34.282C12.9626 33.7104 12.1994 32.8836 11.705 31.897C11.1805 30.8712 10.9134 29.7331 10.927 28.581C10.92 27.7021 11.0701 26.8291 11.3701 26.003C11.6502 25.2298 12.0793 24.5191 12.6331 23.911C13.1757 23.3182 13.837 22.8463 14.574 22.526C15.3524 22.1921 16.1921 22.0249 17.039 22.035C17.6787 22.0322 18.3166 22.1053 18.939 22.253C19.4852 22.3756 20.0132 22.5682 20.51 22.826C20.9064 23.0267 21.2613 23.3005 21.556 23.633C21.7895 23.8812 21.9252 24.2055 21.938 24.546C21.9537 24.8758 21.8399 25.1988 21.621 25.446C21.5219 25.5554 21.4004 25.6423 21.2648 25.7007C21.1292 25.7592 20.9827 25.788 20.835 25.785C20.4165 25.7517 20.0154 25.6032 19.676 25.356C19.3082 25.1136 18.9239 24.897 18.526 24.708C18.0503 24.5377 17.5455 24.4639 17.041 24.491C16.3896 24.4739 15.7506 24.671 15.222 25.052C14.7104 25.4332 14.3153 25.9496 14.0811 26.543C13.8213 27.1914 13.6918 27.8846 13.7 28.583C13.6622 29.6234 13.9653 30.6477 14.563 31.5C14.8469 31.8854 15.222 32.1943 15.6547 32.399C16.0873 32.6038 16.564 32.6979 17.0421 32.673C17.5377 32.673 18.0282 32.5726 18.484 32.378C18.9437 32.1839 19.3383 31.8622 19.621 31.451C20.1349 30.6727 19.3261 29.868 18.3935 29.868H18.259C18.0935 29.8742 17.9284 29.8469 17.7737 29.7876C17.6191 29.7283 17.478 29.6383 17.359 29.523C17.2412 29.4056 17.149 29.2649 17.0884 29.11C17.0278 28.9551 17.0001 28.7892 17.007 28.623C17.0011 28.4597 17.0302 28.297 17.0925 28.1458C17.1547 27.9947 17.2487 27.8587 17.368 27.747C17.6094 27.5231 17.929 27.4028 18.2581 27.412H21.278C21.4959 27.3909 21.7159 27.4169 21.9229 27.4881C21.9606 27.5011 21.9977 27.5155 22.0341 27.5313C22.3606 27.6731 22.6074 27.9607 22.7306 28.2946C22.8266 28.5546 22.8655 28.8345 22.842 29.115C22.851 29.9281 22.7156 30.7363 22.442 31.502M47.176 6.002H9.82703C8.81204 6.002 7.83861 6.4052 7.12091 7.1229C6.40321 7.8406 6 8.81402 6 9.829V47.173C6 48.188 6.40321 49.1614 7.12091 49.8791C7.83861 50.5968 8.81204 51 9.82703 51H47.173C47.6756 51 48.1731 50.901 48.6374 50.7087C49.1016 50.5163 49.5235 50.2344 49.8788 49.879C50.2341 49.5237 50.5159 49.1018 50.7081 48.6375C50.9003 48.1731 50.9992 47.6755 50.999 47.173V9.827C50.9992 9.32447 50.9003 8.82686 50.7081 8.36255C50.5159 7.89824 50.2341 7.47635 49.8788 7.12096C49.5235 6.76558 49.1016 6.48367 48.6374 6.29133C48.1731 6.09899 47.6756 6 47.173 6" fill="white"/>
<path d="M29.6055 24.814C29.5951 24.814 29.5859 24.8207 29.5826 24.8306L28.4289 28.3615C28.1695 29.1554 28.7611 29.971 29.5963 29.971C30.429 29.971 31.0202 29.1598 30.7654 28.3671L29.6284 24.8307C29.6252 24.8207 29.6159 24.814 29.6055 24.814Z" fill="white"/>
</svg>
